HIERARCHY
ROOT Pelvis
{
	OFFSET 0.000000 0.000000 0.000000
	CHANNELS 6 Xposition Yposition Zposition Xrotation Yrotation Zrotation
	JOINT LeftUpLeg_virtual
	{
		OFFSET 0.000000 0.000000 0.000000
		CHANNELS 3 Xrotation Yrotation Zrotation
		JOINT LeftUpLeg
		{
			OFFSET 18.735201 -5.666702 -4.541200
			CHANNELS 3 Xrotation Yrotation Zrotation
			JOINT LeftLeg
			{
				OFFSET -0.021200 -31.938179 0.493100
				CHANNELS 3 Xrotation Yrotation Zrotation
				JOINT LeftFoot
				{
					OFFSET 0.021200 -31.938179 -4.336299
					CHANNELS 3 Xrotation Yrotation Zrotation
					JOINT LeftToeBase
					{
						OFFSET 0.943001 -26.722000 15.023500
						CHANNELS 3 Xrotation Yrotation Zrotation
						End Site
						{
							OFFSET 0 0 0
						}
					}
				}
			}
		}
	}
	JOINT RightUpLeg_virtual
	{
		OFFSET 0.000000 0.000000 0.000000
		CHANNELS 3 Xrotation Yrotation Zrotation
		JOINT RightUpLeg
		{
			OFFSET -18.735201 -5.666702 -4.541200
			CHANNELS 3 Xrotation Yrotation Zrotation
			JOINT RightLeg
			{
				OFFSET 0.018946 -31.938133 0.493100
				CHANNELS 3 Xrotation Yrotation Zrotation
				JOINT RightFoot
				{
					OFFSET -0.018946 -31.938126 -4.336299
					CHANNELS 3 Xrotation Yrotation Zrotation
					JOINT RightToeBase
					{
						OFFSET -0.943001 -26.722004 15.023500
						CHANNELS 3 Xrotation Yrotation Zrotation
						End Site
						{
							OFFSET 0 0 0
						}
					}
				}
			}
		}
	}
	JOINT Hips_virtual
	{
		OFFSET 0.000000 0.000000 0.000000
		CHANNELS 3 Xrotation Yrotation Zrotation
		JOINT Hips
		{
			OFFSET -0.000000 -0.000000 -0.000000
			CHANNELS 3 Xrotation Yrotation Zrotation
			JOINT Spine
			{
				OFFSET 0.000000 10.199997 -0.299500
				CHANNELS 3 Xrotation Yrotation Zrotation
				JOINT Spine1
				{
					OFFSET 0.000000 11.900002 -1.516600
					CHANNELS 3 Xrotation Yrotation Zrotation
					JOINT Spine2
					{
						OFFSET 0.000000 13.600006 -2.842500
						CHANNELS 3 Xrotation Yrotation Zrotation
						JOINT Neck_virtual
						{
							OFFSET 0.000000 0.000000 0.000000
							CHANNELS 3 Xrotation Yrotation Zrotation
							JOINT Neck
							{
								OFFSET 0.000000 9.624100 -2.890100
								CHANNELS 3 Xrotation Yrotation Zrotation
								JOINT Head
								{
									OFFSET 0.000000 14.068802 -1.351900
									CHANNELS 3 Xrotation Yrotation Zrotation
									End Site
									{
										OFFSET 0 0 0
									}
								}
							}
						}
						JOINT LeftShoulder_virtual
						{
							OFFSET 0.000000 0.000000 0.000000
							CHANNELS 3 Xrotation Yrotation Zrotation
							JOINT LeftShoulder
							{
								OFFSET 15.263000 10.923401 -0.547700
								CHANNELS 3 Xrotation Yrotation Zrotation
								JOINT LeftArm
								{
									OFFSET 25.438599 -2.830597 -13.032500
									CHANNELS 3 Xrotation Yrotation Zrotation
									JOINT LeftForeArm
									{
										OFFSET 29.960503 0.000000 0.000000
										CHANNELS 3 Xrotation Yrotation Zrotation
										JOINT LeftHand
										{
											OFFSET 27.849251 0.000000 0.000000
											CHANNELS 3 Xrotation Yrotation Zrotation
											End Site
											{
												OFFSET 0 0 0
											}
										}
									}
								}
							}
						}
						JOINT RightShoulder_virtual
						{
							OFFSET 0.000000 0.000000 0.000000
							CHANNELS 3 Xrotation Yrotation Zrotation
							JOINT RightShoulder
							{
								OFFSET -15.263000 10.923401 -0.547700
								CHANNELS 3 Xrotation Yrotation Zrotation
								JOINT RightArm
								{
									OFFSET -25.438599 -2.830597 -13.032500
									CHANNELS 3 Xrotation Yrotation Zrotation
									JOINT RightForeArm
									{
										OFFSET -29.960503 0.000000 0.000000
										CHANNELS 3 Xrotation Yrotation Zrotation
										JOINT RightHand
										{
											OFFSET -27.849251 0.000000 0.000000
											CHANNELS 3 Xrotation Yrotation Zrotation
											End Site
											{
												OFFSET 0 0 0
											}
										}
									}
								}
							}
						}
					}
				}
			}
		}
	}
}
MOTION
Frames: 12
Frame Time: 0.03333333
-3.991120 71.354042 4.873306 0.000000 0.000000 0.000000 -8.924887 -25.880166 -6.285933 -54.954616 4.072846 13.764800 64.144082 15.773589 -3.443088 6.490575 16.592845 3.000817 0.000000 0.000000 0.000000 15.263577 -10.710202 1.672284 -9.716692 -9.875146 -14.553700 48.635363 -4.630550 8.579699 -4.154785 -11.740227 21.729791 0.000000 0.000000 0.000000 5.876285 5.671521 -2.274578 16.524394 -6.012905 -6.248830 12.097357 8.477530 -5.230501 5.498953 5.288478 -2.626874 0.000000 0.000000 0.000000 3.758891 2.543431 -0.650181 -0.410090 0.340707 1.001953 0.000000 0.000000 0.000000 3.275632 4.341007 -2.964475 0.079084 -0.433213 -8.004426 -10.069730 9.976061 -39.803197 -0.990335 -22.023230 -0.264789 0.000000 0.000000 0.000000 5.423756 4.445833 -2.617705 2.567037 17.718323 -3.811121 -23.000177 57.542076 15.121146 138.238753 84.333479 -144.666344 0.000000 0.000000 0.000000 
-4.086708 71.434425 5.111622 0.000000 0.000000 0.000000 -9.015244 -26.008310 -6.343183 -55.125118 4.055930 13.788082 64.412359 15.821196 -3.514878 6.698371 16.679952 2.960885 0.000000 0.000000 0.000000 15.124064 -10.519399 1.404891 -9.875145 -9.762577 -14.803609 49.132255 -4.564060 8.721895 -3.697674 -11.704389 21.998795 0.000000 0.000000 0.000000 6.065841 5.606035 -2.264250 17.098301 -6.115577 -6.199184 12.151330 8.413132 -5.330741 5.539212 5.269200 -2.675490 0.000000 0.000000 0.000000 3.784673 2.525394 -0.667287 -0.411404 0.309261 1.004726 0.000000 0.000000 0.000000 3.292465 4.311889 -3.029903 0.060118 -0.650648 -8.181182 -10.224266 10.251503 -39.692692 -1.053071 -21.931777 -0.220797 0.000000 0.000000 0.000000 5.452912 4.442673 -2.618318 2.554400 17.546527 -3.690487 -22.985415 57.687211 14.840118 138.116260 84.305394 -144.591416 0.000000 0.000000 0.000000 
-4.269969 71.572395 5.567797 0.000000 0.000000 0.000000 -9.152458 -26.211899 -6.433520 -55.425319 4.034249 13.848726 64.885417 15.896302 -3.653478 7.059340 16.828568 2.864236 0.000000 0.000000 0.000000 14.851246 -10.128824 0.902174 -10.196631 -9.538326 -15.271330 50.082581 -4.419864 8.978833 -2.821094 -11.610077 22.505188 0.000000 0.000000 0.000000 6.435502 5.467390 -2.235419 18.117401 -6.270029 -6.146922 12.241591 8.294329 -5.517624 5.612636 5.228749 -2.768507 0.000000 0.000000 0.000000 3.834125 2.494834 -0.702189 -0.412824 0.249930 1.007829 0.000000 0.000000 0.000000 3.321917 4.254506 -3.154068 0.023875 -1.053961 -8.515672 -10.518636 10.750707 -39.474754 -1.181086 -21.823076 -0.142890 0.000000 0.000000 0.000000 5.505760 4.435243 -2.620167 2.526150 17.228660 -3.480023 -23.017956 57.944893 14.360034 137.746939 84.283578 -144.307240 0.000000 0.000000 0.000000 
-4.529542 71.732803 6.207077 0.000000 0.000000 0.000000 -9.263045 -26.411578 -6.517237 -55.783012 4.026103 13.966134 65.457487 15.966076 -3.848247 7.482057 16.995261 2.686512 0.000000 0.000000 0.000000 14.458173 -9.532220 0.217533 -10.685769 -9.206600 -15.905110 51.410093 -4.186121 9.303447 -1.592934 -11.425569 23.189124 0.000000 0.000000 0.000000 6.966963 5.251834 -2.175326 19.372501 -6.401532 -6.161590 12.344903 8.136558 -5.769063 5.707972 5.164322 -2.898130 0.000000 0.000000 0.000000 3.903264 2.460242 -0.755576 -0.413240 0.169110 1.007463 0.000000 0.000000 0.000000 3.357609 4.170091 -3.324634 -0.026213 -1.591835 -8.975429 -10.930873 11.383447 -39.156139 -1.376773 -21.817159 -0.046677 0.000000 0.000000 0.000000 5.574358 4.421794 -2.624859 2.480358 16.807871 -3.231544 -23.169487 58.262948 13.804928 136.937534 84.318795 -143.602432 0.000000 0.000000 0.000000 
-4.856273 71.883774 6.991169 0.000000 0.000000 0.000000 -9.264686 -26.535375 -6.551864 -56.110059 4.047959 14.153744 66.013881 15.995594 -4.083566 7.866897 17.131457 2.407482 0.000000 0.000000 0.000000 13.965424 -8.742308 -0.589915 -11.340154 -8.778471 -16.651156 53.021109 -3.864932 9.641606 -0.099715 -11.130064 23.969345 0.000000 0.000000 0.000000 7.633944 4.973244 -2.072601 20.650534 -6.447345 -6.298006 12.448066 7.953738 -6.061518 5.814086 5.073615 -3.054095 0.000000 0.000000 0.000000 3.987095 2.429186 -0.827037 -0.412866 0.074882 1.000042 0.000000 0.000000 0.000000 3.394018 4.059642 -3.525488 -0.085159 -2.209579 -9.522949 -11.441930 12.040391 -38.746823 -1.638903 -22.036914 0.053058 0.000000 0.000000 0.000000 5.652279 4.400430 -2.635139 2.421217 16.332181 -3.002700 -23.453177 58.585592 13.282225 135.486146 84.450303 -142.252227 0.000000 0.000000 0.000000 
-5.245861 72.009697 7.889853 0.000000 0.000000 0.000000 -9.086660 -26.540420 -6.503175 -56.319233 4.109187 14.412324 66.462597 15.956825 -4.342144 8.134189 17.196222 2.018065 0.000000 0.000000 0.000000 13.400940 -7.801926 -1.468540 -12.144182 -8.274261 -17.467514 54.816824 -3.481989 9.944765 1.564532 -10.729925 24.753155 0.000000 0.000000 0.000000 8.402823 4.668069 -1.923437 21.806552 -6.379913 -6.566494 12.555775 7.752539 -6.375239 5.923165 4.955822 -3.224979 0.000000 0.000000 0.000000 4.080875 2.404802 -0.914056 -0.413091 -0.024227 0.983505 0.000000 0.000000 0.000000 3.428887 3.923625 -3.739155 -0.147019 -2.861667 -10.123134 -12.043270 12.611680 -38.257853 -1.960291 -22.568369 0.147239 0.000000 0.000000 0.000000 5.737009 4.369182 -2.654246 2.361577 15.843121 -2.842385 -23.788767 58.863526 12.837633 133.217922 84.686143 -140.059108 0.000000 0.000000 0.000000 
-5.696502 72.115669 8.888330 0.000000 0.000000 0.000000 -8.682820 -26.414730 -6.351048 -56.338460 4.211711 14.730495 66.753686 15.833826 -4.610156 8.242315 17.165777 1.520296 0.000000 0.000000 0.000000 12.797829 -6.783048 -2.380926 -13.067258 -7.722717 -18.329175 56.697858 -3.085795 10.178817 3.305350 -10.263813 25.449025 0.000000 0.000000 0.000000 9.233512 4.385949 -1.735208 22.801907 -6.207353 -6.927925 12.685698 7.530995 -6.695978 6.031310 4.811842 -3.399645 0.000000 0.000000 0.000000 4.180921 2.384274 -1.011740 -0.415090 -0.120394 0.957863 0.000000 0.000000 0.000000 3.464019 3.762417 -3.949337 -0.205630 -3.516262 -10.747267 -12.737586 13.000550 -37.699731 -2.327280 -23.438475 0.233920 0.000000 0.000000 0.000000 5.829694 4.325867 -2.684694 2.320922 15.369394 -2.781539 -24.027376 59.057367 12.447518 130.014932 84.996998 -136.888247 0.000000 0.000000 0.000000 
-6.203650 72.221924 9.986609 0.000000 0.000000 0.000000 -8.035276 -26.167105 -6.091152 -56.120174 4.353309 15.089723 66.882647 15.624220 -4.881380 8.191413 17.037430 0.923404 0.000000 0.000000 0.000000 12.189909 -5.773694 -3.303920 -14.067780 -7.156810 -19.224920 58.563531 -2.737085 10.327618 5.030945 -9.795229 25.979835 0.000000 0.000000 0.000000 10.081971 4.170638 -1.525566 23.697410 -5.957320 -7.314003 12.854726 7.281959 -7.013819 6.136716 4.643787 -3.568641 0.000000 0.000000 0.000000 4.284096 2.359899 -1.113574 -0.418556 -0.207500 0.924952 0.000000 0.000000 0.000000 3.504168 3.577392 -4.143079 -0.255470 -4.153701 -11.372858 -13.532874 13.132385 -37.083846 -2.720746 -24.614082 0.316466 0.000000 0.000000 0.000000 5.932617 4.268203 -2.727147 2.319532 14.926434 -2.830589 -24.020020 59.139002 12.048031 125.867300 85.330113 -132.723170 0.000000 0.000000 0.000000 
-6.756021 72.352196 11.191642 0.000000 0.000000 0.000000 -7.150892 -25.817248 -5.734898 -55.644919 4.531661 15.469263 66.880318 15.338149 -5.158069 8.014544 16.827810 0.240038 0.000000 0.000000 0.000000 11.606102 -4.858984 -4.224165 -15.101499 -6.607763 -20.149700 60.311964 -2.493774 10.391698 6.653913 -9.396665 26.293848 0.000000 0.000000 0.000000 10.905518 4.042405 -1.317366 24.613888 -5.657759 -7.656704 13.066364 6.998944 -7.321029 6.237149 4.454313 -3.725320 0.000000 0.000000 0.000000 4.386337 2.322098 -1.213083 -0.421728 -0.281876 0.887683 0.000000 0.000000 0.000000 3.554716 3.371943 -4.312046 -0.292717 -4.762924 -11.980719 -14.433602 12.961392 -36.427004 -3.118725 -26.018142 0.400007 0.000000 0.000000 0.000000 6.046401 4.194363 -2.780110 2.371592 14.519684 -2.981902 -23.686181 59.093369 11.577404 120.939892 85.631789 -127.734919 0.000000 0.000000 0.000000 
-7.336372 72.522667 12.507410 0.000000 0.000000 0.000000 -6.054271 -25.392975 -5.307774 -54.919751 4.746231 15.848824 66.795309 14.994504 -5.448150 7.761789 16.565929 -0.515838 0.000000 0.000000 0.000000 11.065624 -4.105179 -5.131860 -16.130793 -6.100194 -21.096795 61.846284 -2.398175 10.383825 8.094718 -9.132542 26.370157 0.000000 0.000000 0.000000 11.670229 3.992652 -1.131716 25.680768 -5.324926 -7.908765 13.307098 6.680646 -7.610449 6.328730 4.246163 -3.866216 0.000000 0.000000 0.000000 4.481579 2.262797 -1.305578 -0.422659 -0.342572 0.849085 0.000000 0.000000 0.000000 3.619158 3.151668 -4.452544 -0.316217 -5.338653 -12.551801 -15.433745 12.474724 -35.754497 -3.500219 -27.553881 0.488121 0.000000 0.000000 0.000000 6.168075 4.103708 -2.840379 2.480085 14.149054 -3.215149 -23.044607 58.920606 11.006019 115.595952 85.866488 -122.304127 0.000000 0.000000 0.000000 
-7.926204 72.736816 13.928619 0.000000 0.000000 0.000000 -4.779880 -24.930015 -4.844019 -53.972462 4.997467 16.210047 66.675829 14.615247 -5.760593 7.483624 16.283468 -1.330227 0.000000 0.000000 0.000000 10.576074 -3.551736 -6.015903 -17.131069 -5.649820 -22.053388 63.086523 -2.470732 10.323156 9.287782 -9.046784 26.216798 0.000000 0.000000 0.000000 12.357145 3.992866 -0.982441 26.994829 -4.961341 -8.048227 13.552472 6.331869 -7.875252 6.406812 4.022302 -3.990628 0.000000 0.000000 0.000000 4.562076 2.177715 -1.389282 -0.420614 -0.391047 0.811484 0.000000 0.000000 0.000000 3.697490 2.923638 -4.564446 -0.327671 -5.878878 -13.065599 -16.514950 11.693478 -35.098218 -3.849217 -29.127765 0.581136 0.000000 0.000000 0.000000 6.290957 3.997137 -2.903921 2.635517 13.812244 -3.503736 -22.196045 58.636546 10.341774 110.313012 86.024279 -116.931527 0.000000 0.000000 0.000000 
-8.510989 72.987335 15.440090 0.000000 0.000000 0.000000 -3.365699 -24.469452 -4.377797 -52.843995 5.284245 16.538465 66.555808 14.219180 -6.101415 7.217723 16.005611 -2.190744 0.000000 0.000000 0.000000 10.134857 -3.211003 -6.862529 -18.092343 -5.263513 -23.000800 63.982378 -2.710699 10.229584 10.188246 -9.157796 25.862713 0.000000 0.000000 0.000000 12.964455 4.012262 -0.874036 28.596486 -4.561492 -8.071893 13.777876 5.961412 -8.109847 6.468053 3.786341 -4.099597 0.000000 0.000000 0.000000 4.620413 2.066939 -1.465447 -0.416584 -0.430363 0.775949 0.000000 0.000000 0.000000 3.786201 2.695137 -4.649534 -0.330574 -6.382431 -13.501475 -17.648367 10.668925 -34.489501 -4.156940 -30.664520 0.676457 0.000000 0.000000 0.000000 6.406203 3.876938 -2.966657 2.818802 13.506437 -3.821061 -21.275252 58.270359 9.617028 105.536470 86.116521 -112.084238 0.000000 0.000000 0.000000 
